<svg xmlns="http://www.w3.org/2000/svg" viewBox="0 0 48 48">
  <path fill="#4285F4" d="M44.5,4H3.5C2.1,4,1,5.1,1,6.5v35C1,42.9,2.1,44,3.5,44h40.9c1.4,0,2.6-1.1,2.6-2.5v-35C47,5.1,45.9,4,44.5,4z"/>
  <path fill="#34A853" d="M3.5,4h40.9C45.9,4,47,5.1,47,6.5v35c0,1.4-1.1,2.5-2.6,2.5h-20l-21.9-27V6.5C1,5.1,2.1,4,3.5,4z"/>
  <path fill="#FBBC04" d="M1,6.5v35C1,42.9,2.1,44,3.5,44h20V13L1,6.5z"/>
  <path fill="#EA4335" d="M23.5,13v31h20.9c1.4,0,2.6-1.1,2.6-2.5v-35L23.5,13z"/>
  <circle fill="#FFF" cx="24" cy="24" r="10"/>
  <path fill="#EA4335" d="M24,14c-5.5,0-10,4.5-10,10c0,5.5,10,18,10,18s10-12.5,10-18C34,18.5,29.5,14,24,14z M24,28c-2.2,0-4-1.8-4-4 s1.8-4,4-4s4,1.8,4,4S26.2,28,24,28z"/>
</svg>
