<svg xmlns="http://www.w3.org/2000/svg" viewBox="0 0 48 48" width="24px" height="24px">
    <path fill="#EA4335" d="M24 9.5c3.5 0 6.1 1.5 7.9 3.2l5.8-5.8C34.3 3.7 29.7 1.5 24 1.5 14.9 1.5 7.3 7.9 4.6 15.8l6.8 5.3C13.2 16.6 18.1 9.5 24 9.5z"/>
    <path fill="#34A853" d="M9.1 28.5c-1.5-1.5-2.8-3.3-3.7-5.4L0 29c2.7 5.8 8.4 10 14.6 10 3.9 0 7.4-1.2 10.3-3.2l-5.7-5.3c-1.3.9-2.9 1.5-4.6 1.5-3.6 0-6.7-2.4-7.9-5.5z"/>
    <path fill="#FBBC05" d="M42.5 24.5c0-.9-.1-1.8-.2-2.6H24v6.8h10.4c-.4 2-1.5 3.7-3.1 4.9l5.7 5.3c3.3-3.1 5.5-7.7 5.5-13.4z"/>
    <path fill="#4285F4" d="M24 44c5.3 0 9.8-1.8 13.1-4.7l-5.7-5.3c-2.3 1.6-5.2 2.6-8.4 2.6-6.2 0-11.4-4.2-13.3-10.1l-6.8 5.3C7.3 40.1 14.9 44 24 44z"/>
</svg>
