<svg xmlns="http://www.w3.org/2000/svg" viewBox="0 0 32 32">
  <defs>
    <linearGradient id="instagramGradient" x1="100%" y1="100%" x2="0%" y2="0%">
      <stop offset="0%" style="stop-color:#f09433;stop-opacity:1" />
      <stop offset="25%" style="stop-color:#e6683c;stop-opacity:1" />
      <stop offset="50%" style="stop-color:#dc2743;stop-opacity:1" />
      <stop offset="75%" style="stop-color:#cc2366;stop-opacity:1" />
      <stop offset="100%" style="stop-color:#bc1888;stop-opacity:1" />
    </linearGradient>
  </defs>
  <path class="cls-1" fill="url(#instagramGradient)" d="M16 0c-4.418 0-4.98.02-6.718.097-1.738.077-2.93.344-3.96.736a8.265 8.265 0 0 0-2.993 1.953A8.265 8.265 0 0 0 .833 5.84c-.392 1.03-.659 2.222-.736 3.96C0 11.54 0 12.102 0 16s.02 4.98.097 6.718c.077 1.738.344 2.93.736 3.96a8.265 8.265 0 0 0 1.953 2.993 8.265 8.265 0 0 0 2.993 1.953c1.03.392 2.222.659 3.96.736C11.54 32 12.102 32 16 32s4.98-.02 6.718-.097c1.738-.077 2.93-.344 3.96-.736a8.265 8.265 0 0 0 2.993-1.953 8.265 8.265 0 0 0 1.953-2.993c.392-1.03.659-2.222.736-3.96C32 20.46 32 19.898 32 16s-.02-4.98-.097-6.718c-.077-1.738-.344-2.93-.736-3.96a8.265 8.265 0 0 0-1.953-2.993 8.265 8.265 0 0 0-2.993-1.953c-1.03-.392-2.222-.659-3.96-.736C20.46 0 19.898 0 16 0zm0 2c4.326 0 4.842.016 6.538.094 1.58.07 2.432.326 3.002.54.757.288 1.3.634 1.87 1.203.57.57.915 1.113 1.203 1.87.214.57.47 1.422.54 3.002.078 1.696.094 2.212.094 6.538s-.016 4.842-.094 6.538c-.07 1.58-.326 2.432-.54 3.002-.288.757-.634 1.3-1.203 1.87-.57.57-1.113.915-1.87 1.203-.57.214-1.422.47-3.002.54-1.696.078-2.212.094-6.538.094s-4.842-.016-6.538-.094c-1.58-.07-2.432-.326-3.002-.54-.757-.288-1.3-.634-1.87-1.203-.57-.57-.915-1.113-1.203-1.87-.214-.57-.47-1.422-.54-3.002-.078-1.696-.094-2.212-.094-6.538s.016-4.842.094-6.538c.07-1.58.326-2.432.54-3.002.288-.757.634-1.3 1.203-1.87.57-.57 1.113-.915 1.87-1.203.57-.214 1.422-.47 3.002-.54C11.158 2.016 11.674 2 16 2zm0 4a10 10 0 1 0 10 10 10 10 0 0 0-10-10zm0 2a8 8 0 1 1-8 8 8 8 0 0 1 8-8zm10.75-2.75a1.25 1.25 0 1 0 1.25 1.25 1.25 1.25 0 0 0-1.25-1.25z"/>
</svg>
