<svg xmlns="http://www.w3.org/2000/svg" viewBox="0 0 32 32">
  <path class="cls-1" fill="#FF0000" d="M31.84 9.64c-.2-1.36-.8-2.52-1.6-3.32-1.48-1.52-3.48-1.6-4.32-1.68C22.64 4.24 16 4.24 16 4.24s-6.64 0-9.92.4c-.84.08-2.84.16-4.32 1.68-.8.8-1.4 1.96-1.6 3.32-.44 2.36-.44 7.28-.44 7.28s0 4.92.44 7.28c.2 1.36.8 2.52 1.6 3.32 1.48 1.52 3.48 1.6 4.32 1.68 3.28.4 9.92.4 9.92.4s6.64 0 9.92-.4c.84-.08 2.84-.16 4.32-1.68.8-.8 1.4-1.96 1.6-3.32.44-2.36.44-7.28.44-7.28s0-4.92-.44-7.28zM12.64 19.96v-8.8l8.32 4.4-8.32 4.4z"/>
</svg>
